<svg width="924" height="734" xmlns="http://www.w3.org/2000/svg" xmlns:xlink="http://www.w3.org/1999/xlink" overflow="hidden"><defs><clipPath id="clip0"><rect x="79" y="181" width="924" height="734"/></clipPath><clipPath id="clip1"><rect x="181" y="181" width="718" height="718"/></clipPath><clipPath id="clip2"><rect x="181" y="181" width="719" height="719"/></clipPath><clipPath id="clip3"><rect x="181" y="181" width="719" height="719"/></clipPath><clipPath id="clip4"><rect x="181" y="181" width="719" height="718"/></clipPath></defs><g clip-path="url(#clip0)" transform="translate(-79 -181)"><g clip-path="url(#clip1)"><g clip-path="url(#clip2)"><g clip-path="url(#clip3)"><g clip-path="url(#clip4)"><path d="M485.974 281.363C503.079 261.195 532.974 253.421 557.759 262.611 573.975 268.502 587.969 280.813 595.102 296.62 603.087 313.082 603.332 332.911 596.376 349.781 590.752 363.413 580.311 375.059 567.381 382.143 551.645 391.11 532.073 392.618 514.933 387.077 497.794 381.5 483.086 368.535 475.814 351.99 465.058 329.192 469.139 300.186 485.974 281.363Z"/><path d="M411.125 331.952C418.258 329.474 425.261 326.444 432.719 325.089 434.076 334.044 438.578 342.474 439.01 351.511 405.199 361.204 373.643 378.834 347.887 402.825 310.918 437.116 285.993 484.126 278.451 533.991 271.052 582.357 279.995 633.134 303.927 675.842 314.31 695.145 327.929 712.6 343.386 728.091 336.604 734.429 330.549 741.513 323.698 747.791 299.613 723.204 279.644 694.362 266.923 662.292 248.37 617.304 243.693 566.809 253.129 519.119 263.651 465.326 292.212 415.217 333.308 378.95 356.071 358.689 382.575 342.614 411.125 331.952Z"/><path d="M621.933 378.776C626.727 370.873 631.906 363.202 636.909 355.439 649.643 364.336 662.409 373.351 673.388 384.388 692.759 402.427 709.105 423.694 721.767 446.936 728.348 458.687 733.329 471.209 738.449 483.624 728.267 483.718 718.166 482.257 708.006 481.858 690.597 439.876 660.386 403.129 621.933 378.776Z"/><path d="M456.008 430.569C488.757 419.872 525.024 421.894 556.836 434.824 553.539 443.429 549.575 451.753 546.197 460.323 532.39 454.525 517.518 451.356 502.553 450.854 479.521 450.725 456.372 457.096 437.069 469.769 417.322 482.514 401.399 501.43 392.794 523.34 384.048 520.663 375.818 516.443 367.189 513.378 382.272 474.224 416.094 443.219 456.008 430.569Z"/><path d="M573.32 444.995C579.283 443.732 586.286 444.902 590.32 449.859 597.92 457.201 595.593 471.734 586.111 476.422 577.377 481.52 564.715 476.784 561.84 466.988 558.285 458.043 564.248 447.497 573.32 444.995Z"/><path d="M468.391 518.196C475.698 517.612 483.029 518.125 490.347 517.915 490.615 549.353 490.428 580.804 490.441 612.253 510.011 612.288 529.595 612.183 549.166 612.312 549.037 618.882 549.564 625.475 548.991 632.034L548.266 632.385C521.691 632.654 495.093 632.233 468.519 632.597 468.449 594.458 468.694 556.322 468.391 518.196Z"/><path d="M633.321 529.022C643.363 520.604 656.926 517.798 669.751 517.939 681.29 518.242 693.263 520.755 702.546 527.993 706.976 531.278 710.028 535.943 712.881 540.585 707.28 544.057 701.27 546.781 695.449 549.857 688.691 540.432 676.391 536.434 665.169 537.252 658.996 537.673 652.132 539.041 647.97 544.022 644.895 547.167 644.216 552.077 645.656 556.146 648.016 560.728 653.126 562.833 657.862 564.05 668.698 566.738 680.097 566.622 690.713 570.293 699.822 572.947 708.87 578.219 713.044 587.105 717.405 596.762 717.557 608.488 712.939 618.075 708.59 627.499 699.189 633.426 689.557 636.36 674.849 640.709 658.796 640.336 644.146 635.904 632.163 632.233 622.74 622.6 618.122 611.095 624.038 607.751 630.222 604.935 636.091 601.486 638.593 605.648 641.119 609.997 645.222 612.802 654.26 619.431 666.103 620.542 676.906 619.01 681.687 618.063 686.621 616.543 690.235 613.106 696.009 607.88 696.022 597.218 689.428 592.659 682.272 587.677 673.34 586.8 664.934 585.749 653.711 584.217 641.937 581.855 632.935 574.513 619.876 563.208 619.957 540.083 633.321 529.022Z"/><path d="M816.443 519.481C831.899 516.29 848.84 517.856 862.566 526.051 872.761 532.132 880.793 541.684 885.083 552.743 892.765 571.602 891.221 594.085 880.793 611.598 873.451 623.863 860.87 632.725 846.899 635.67 832.32 638.77 816.547 637.834 802.939 631.485 792.231 626.376 783.45 617.409 778.411 606.688 769.361 587.339 770.297 563.57 780.995 545.063 788.384 531.956 801.782 522.581 816.443 519.481M822.581 538.785C815.718 540.07 809.275 543.507 804.494 548.605 791.762 562.412 790.711 584.603 799.736 600.631 805.569 611.4 817.928 617.326 829.912 617.176 840.364 617.608 851.575 614.24 858.555 606.091 865.208 598.62 867.943 588.438 868.271 578.629 868.377 567.322 864.962 555.432 856.579 547.482 847.846 538.726 834.355 536.458 822.581 538.785Z"/><path d="M360.525 536.224C370.954 533.066 383.371 536.972 389.579 546.068 397.857 556.636 396.103 573.567 385.721 582.136 375.783 591.372 358.689 590.881 349.266 581.142 341.211 573.497 338.861 560.577 343.748 550.605 346.834 543.636 353.229 538.305 360.525 536.224Z"/><path d="M361.695 606.302C370.568 603.905 379.384 601.31 388.281 598.995 399.061 638.979 433.012 671.388 473.29 680.776 495.549 686.399 519.423 684.763 540.888 676.766 542.362 676.241 543.893 675.924 545.425 675.608 548.302 684.248 552.943 692.268 555.234 701.096 539.485 706.848 522.978 710.975 506.141 711.443 459.891 713.664 413.383 691.614 385.627 654.575 374.649 640.207 366.5 623.734 361.695 606.302Z"/><path d="M570.936 661.077C575.203 660.235 579.576 661.954 582.85 664.641 587.736 668.827 588.988 676.485 585.854 682.086 581.995 690.971 568.399 692.303 562.331 685.02 557.783 679.877 557.607 671.411 562.015 666.139 564.248 663.45 567.51 661.696 570.936 661.077Z"/><path d="M605.635 765.889C645.97 744.646 679.502 710.647 700.125 669.985 709.923 670.09 719.649 671.505 729.447 671.704 728.921 673.562 728.361 675.434 727.449 677.152 718.515 695.215 707.866 712.495 694.958 728.01 687.417 736.743 680.016 745.721 671.084 753.111 641.411 780.749 604.677 800.648 565.546 811.112 509.147 826.229 447.462 821.119 394.57 796.275 398.498 788.056 402.392 779.814 406.017 771.442 422.42 778.516 439.361 784.514 456.968 787.764 507.077 797.935 560.519 789.869 605.635 765.889Z"/><path d="M355.744 737.151C363.086 734.977 371.246 735.796 377.91 739.607 388.035 744.903 393.881 756.852 392.325 768.098 391.191 779.382 382.54 789.284 371.586 792.124 360.443 795.352 347.606 790.816 340.931 781.334 336.827 775.885 335.049 768.883 335.67 762.124 336.312 750.679 344.788 740.355 355.744 737.151Z"/></g></g></g></g><path d="M846.892 19.1293C847.704 19.1293 848.498 19.1379 849.275 19.1551L849.275 34.6136C848.308 34.7687 847.289 34.8463 846.219 34.8463 843.854 34.8463 842.058 34.1613 840.832 32.7911 839.606 31.4211 838.993 29.435 838.993 26.8327 838.993 24.2304 839.615 22.2959 840.858 21.0292 842.101 19.7626 844.112 19.1293 846.892 19.1293ZM153.531 10.7278C153.842 11.624 154.179 12.5547 154.541 13.5197L158.089 22.8776 149.439 22.8776 152.625 13.5456C152.953 12.5633 153.255 11.624 153.531 10.7278ZM280.623 10.7278C280.933 11.624 281.27 12.5547 281.633 13.5197L285.181 22.8776 276.531 22.8776 279.716 13.5456C280.044 12.5633 280.346 11.624 280.623 10.7278ZM490.774 10.7278C491.085 11.624 491.422 12.5547 491.784 13.5197L495.332 22.8776 486.682 22.8776 489.868 13.5456C490.196 12.5633 490.498 11.624 490.774 10.7278ZM814.007 10.7278C814.318 11.624 814.655 12.5547 815.017 13.5197L818.565 22.8776 809.915 22.8776 813.101 13.5456C813.429 12.5633 813.731 11.624 814.007 10.7278ZM353.122 3.20539C353.519 3.20539 353.947 3.22269 354.404 3.25709 354.862 3.29159 355.375 3.3433 355.945 3.4122L355.945 18.0435C355.03 18.0952 354.201 18.1211 353.459 18.1211 351.007 18.1211 349.212 17.505 348.072 16.2728 346.933 15.0405 346.363 13.1147 346.363 10.4952 346.363 7.96183 346.911 6.11358 348.007 4.95024 349.104 3.78701 350.809 3.20539 353.122 3.20539ZM846.659 3.20539C846.987 3.20539 847.371 3.21829 847.812 3.24419 848.252 3.26999 848.739 3.31739 849.275 3.3864L849.275 16.8286C848.394 16.8458 847.557 16.8544 846.763 16.8544 844.553 16.8544 842.917 16.3245 841.855 15.2646 840.793 14.2047 840.262 12.4082 840.262 9.87478 840.262 7.49651 840.81 5.79047 841.907 4.75644 843.003 3.72241 844.587 3.20539 846.659 3.20539ZM61.2277 2.42987C64.8707 2.42987 67.5166 3.76121 69.1653 6.42378 70.8142 9.08636 71.6386 13.1147 71.6386 18.5088 71.6386 24.0236 70.7063 28.2415 68.8416 31.1626 66.977 34.0837 64.2405 35.5442 60.6321 35.5442 57.0756 35.5442 54.4469 34.2173 52.7464 31.5633 51.0457 28.9093 50.1954 24.7388 50.1954 19.0516 50.1954 13.7093 51.0932 9.60338 52.8887 6.73399 54.6843 3.86461 57.464 2.42987 61.2277 2.42987ZM392.466 2.42987C396.109 2.42987 398.755 3.76121 400.404 6.42378 402.053 9.08636 402.877 13.1147 402.877 18.5088 402.877 24.0236 401.945 28.2415 400.08 31.1626 398.216 34.0837 395.479 35.5442 391.871 35.5442 388.314 35.5442 385.686 34.2173 383.985 31.5633 382.284 28.9093 381.434 24.7388 381.434 19.0516 381.434 13.7093 382.332 9.60338 384.128 6.73399 385.923 3.86461 388.703 2.42987 392.466 2.42987ZM584.605 2.42987C588.248 2.42987 590.894 3.76121 592.542 6.42378 594.191 9.08636 595.016 13.1147 595.016 18.5088 595.016 24.0236 594.083 28.2415 592.219 31.1626 590.354 34.0837 587.618 35.5442 584.009 35.5442 580.453 35.5442 577.824 34.2173 576.123 31.5633 574.423 28.9093 573.573 24.7388 573.573 19.0516 573.573 13.7093 574.47 9.60338 576.266 6.73399 578.061 3.86461 580.841 2.42987 584.605 2.42987ZM37.2666 0.853023C34.8496 0.921923 32.9935 0.956426 31.6986 0.956426 30.0067 0.956426 28.401 0.921923 26.8817 0.853023L9.65987 22.3863C8.96919 23.2481 8.26139 24.1615 7.53624 25.1265 7.5707 23.9374 7.58804 22.7914 7.58804 21.6884L7.58804 8.22033C7.58804 6.54869 7.60527 5.10975 7.63984 3.90341 7.65707 3.507 7.88148 3.24849 8.31318 3.12789L11.628 2.22306 11.7058 0.853023C9.32315 0.921923 7.38947 0.956426 5.90473 0.956426 4.38531 0.956426 2.46036 0.921923 0.129542 0.853023L0 2.17136 3.52212 3.17959C3.91915 3.30019 4.12633 3.5845 4.14367 4.03261 4.19546 5.17005 4.22131 6.60039 4.22131 8.32374L4.22131 37.0436 7.19962 37.3279 27.6069 11.8135C28.2111 11.038 28.9104 10.1161 29.7046 9.04756 29.6701 10.3229 29.6528 11.4947 29.6528 12.5633L29.6528 28.9265C29.6528 30.9601 29.6355 32.6403 29.601 33.9674 29.5837 34.4672 29.3679 34.7687 28.9536 34.8721L25.6386 35.7769 25.561 37.1211C27.8917 37.0695 29.8081 37.0436 31.3102 37.0436 32.795 37.0436 34.7373 37.0695 37.1372 37.1211L37.2666 35.8286 33.7963 34.8721C33.3475 34.7343 33.1145 34.4672 33.0971 34.0708 33.0627 32.6748 33.0453 30.9601 33.0453 28.9265L33.0453 8.32374C33.0453 6.60039 33.0627 5.17005 33.0971 4.03261 33.1145 3.5845 33.3217 3.30019 33.7187 3.17959L37.189 2.17136ZM101.666 0.853023C99.2663 0.921923 96.6074 0.956426 93.6897 0.956426 90.6855 0.956426 87.9921 0.921923 85.6096 0.853023L85.4801 2.17136 88.9504 3.12789C89.3648 3.23129 89.5892 3.4898 89.6237 3.90341 89.641 4.52383 89.6539 5.19155 89.6625 5.90677 89.6712 6.62199 89.6755 7.39311 89.6755 8.22033L89.6755 28.9265C89.6755 29.9606 89.6712 30.8998 89.6625 31.7442 89.6539 32.5886 89.641 33.347 89.6237 34.0191 89.6065 34.4672 89.313 34.7687 88.7432 34.9238L85.5578 35.8286 85.4801 37.1211C87.8799 37.0695 90.5388 37.0436 93.4565 37.0436 96.4779 37.0436 99.1712 37.0695 101.537 37.1211L101.666 35.8286 98.1958 34.8721C97.7642 34.7515 97.5312 34.4844 97.4966 34.0708 97.4794 33.3815 97.4664 32.6102 97.4577 31.7571 97.449 30.9041 97.4448 29.9606 97.4448 28.9265L97.4448 8.32374C97.4448 7.46212 97.449 6.67799 97.4577 5.97137 97.4664 5.26485 97.4794 4.61853 97.4966 4.03261 97.5138 3.5845 97.721 3.30019 98.1182 3.17959L101.588 2.17136ZM136.088 0.853023C131.841 0.921923 127.775 0.956426 123.891 0.956426L116.665 0.956426C112.781 0.956426 108.689 0.921923 104.39 0.853023L104.234 1.05983 105.944 10.5211 107.394 10.7537 109.077 3.619 116.562 3.619 116.562 28.8748C116.562 30.9084 116.544 32.5714 116.51 33.864 116.493 34.2776 116.259 34.5533 115.811 34.6912L111.745 35.8286 111.667 37.1211C114.533 37.0695 117.425 37.0436 120.343 37.0436 123.381 37.0436 126.282 37.0695 129.044 37.1211L129.174 35.8286 125.03 34.6912C124.599 34.5533 124.374 34.2776 124.357 33.864 124.322 32.5714 124.305 30.9084 124.305 28.8748L124.305 3.619 131.764 3.619 134.146 10.4952 135.596 10.7278 136.27 1.05983ZM197.606 0.853023C193.203 0.921923 189.06 0.956426 185.175 0.956426L178.39 0.956426C175.921 0.956426 173.443 0.921923 170.957 0.853023L170.828 2.17136 188.723 34.381 175.696 34.381 172.045 26.8327 170.543 26.6 171.242 36.9402 171.398 37.1211C176.301 37.0695 180.652 37.0436 184.45 37.0436L191.39 37.0436C193.807 37.0436 196.069 37.0695 198.176 37.1211L198.305 35.8286 180.358 3.5673 193.022 3.5673 194.938 9.84898 196.389 10.0558 197.761 1.05983ZM218.751 0.853023C216.351 0.921923 213.692 0.956426 210.774 0.956426 207.77 0.956426 205.077 0.921923 202.694 0.853023L202.565 2.17136 206.035 3.12789C206.449 3.23129 206.674 3.4898 206.708 3.90341 206.725 4.52383 206.738 5.19155 206.747 5.90677 206.756 6.62199 206.76 7.39311 206.76 8.22033L206.76 28.9265C206.76 29.9606 206.756 30.8998 206.747 31.7442 206.738 32.5886 206.725 33.347 206.708 34.0191 206.691 34.4672 206.397 34.7687 205.828 34.9238L202.642 35.8286 202.565 37.1211C204.964 37.0695 207.623 37.0436 210.541 37.0436 213.562 37.0436 216.256 37.0695 218.621 37.1211L218.751 35.8286 215.28 34.8721C214.849 34.7515 214.615 34.4844 214.581 34.0708 214.564 33.3815 214.551 32.6102 214.542 31.7571 214.534 30.9041 214.529 29.9606 214.529 28.9265L214.529 8.32374C214.529 7.46212 214.534 6.67799 214.542 5.97137 214.551 5.26485 214.564 4.61853 214.581 4.03261 214.598 3.5845 214.805 3.30019 215.203 3.17959L218.673 2.17136ZM259.427 0.853023C257.01 0.921923 255.154 0.956426 253.859 0.956426 252.167 0.956426 250.561 0.921923 249.042 0.853023L231.82 22.3863C231.129 23.2481 230.421 24.1615 229.696 25.1265 229.731 23.9374 229.748 22.7914 229.748 21.6884L229.748 8.22033C229.748 6.54869 229.765 5.10975 229.8 3.90341 229.817 3.507 230.042 3.24849 230.473 3.12789L233.788 2.22306 233.866 0.853023C231.483 0.921923 229.55 0.956426 228.065 0.956426 226.546 0.956426 224.62 0.921923 222.29 0.853023L222.16 2.17136 225.682 3.17959C226.079 3.30019 226.287 3.5845 226.304 4.03261 226.356 5.17005 226.382 6.60039 226.382 8.32374L226.382 37.0436 229.36 37.3279 249.767 11.8135C250.371 11.038 251.07 10.1161 251.865 9.04756 251.83 10.3229 251.813 11.4947 251.813 12.5633L251.813 28.9265C251.813 30.9601 251.796 32.6403 251.761 33.9674 251.744 34.4672 251.528 34.7687 251.114 34.8721L247.799 35.7769 247.721 37.1211C250.052 37.0695 251.968 37.0436 253.47 37.0436 254.955 37.0436 256.897 37.0695 259.297 37.1211L259.427 35.8286 255.957 34.8721C255.508 34.7343 255.275 34.4672 255.257 34.0708 255.223 32.6748 255.205 30.9601 255.205 28.9265L255.205 8.32374C255.205 6.60039 255.223 5.17005 255.257 4.03261 255.275 3.5845 255.482 3.30019 255.879 3.17959L259.349 2.17136ZM468.672 0.853023C466.445 0.921923 463.872 0.956426 460.954 0.956426 457.95 0.956426 455.343 0.921923 453.133 0.853023L453.004 2.17136 456.215 3.12789C456.629 3.23129 456.854 3.4898 456.888 3.90341 456.906 4.52383 456.919 5.40695 456.927 6.55299 456.936 7.69902 456.94 8.25484 456.94 8.22033L456.94 28.668C456.94 30.5637 456.923 32.4422 456.888 34.3034L446.763 34.3034 443.215 26.9619 441.635 26.7293 442.282 36.9402 442.463 37.1211C446.728 37.0695 450.897 37.0436 454.972 37.0436L461.395 37.0436C463.967 37.0436 466.35 37.0695 468.542 37.1211L468.672 35.8286 465.461 34.8721C465.029 34.7515 464.796 34.4844 464.761 34.0708 464.744 33.3815 464.731 32.6102 464.722 31.7571 464.714 30.9041 464.709 29.9606 464.709 28.9265L464.709 8.32374C464.709 7.46212 464.714 6.67799 464.722 5.97137 464.731 5.26485 464.744 4.61853 464.761 4.03261 464.779 3.5845 464.986 3.30019 465.383 3.17959L468.594 2.17136ZM524.971 0.853023C522.571 0.921923 519.913 0.956426 516.995 0.956426 513.991 0.956426 511.297 0.921923 508.915 0.853023L508.785 2.17136 512.255 3.12789C512.67 3.23129 512.894 3.4898 512.929 3.90341 512.946 4.52383 512.959 5.19155 512.968 5.90677 512.976 6.62199 512.981 7.39311 512.981 8.22033L512.981 28.9265C512.981 29.9606 512.976 30.8998 512.968 31.7442 512.959 32.5886 512.946 33.347 512.929 34.0191 512.912 34.4672 512.618 34.7687 512.048 34.9238L508.863 35.8286 508.785 37.1211C511.185 37.0695 513.844 37.0436 516.762 37.0436 519.783 37.0436 522.476 37.0695 524.842 37.1211L524.971 35.8286 521.501 34.8721C521.069 34.7515 520.836 34.4844 520.802 34.0708 520.784 33.3815 520.771 32.6102 520.763 31.7571 520.754 30.9041 520.75 29.9606 520.75 28.9265L520.75 8.32374C520.75 7.46212 520.754 6.67799 520.763 5.97137 520.771 5.26485 520.784 4.61853 520.802 4.03261 520.819 3.5845 521.026 3.30019 521.423 3.17959L524.893 2.17136ZM692.092 0.853023C689.674 0.921923 687.378 0.956426 685.203 0.956426L678.651 0.956426C674.455 0.956426 670.105 0.921923 665.598 0.853023L665.417 1.05983 667.023 9.66798 668.421 9.87478 670.079 3.5932 680.101 3.5932 680.101 17.3197 678.703 17.3197C677.201 17.3197 675.586 17.3025 673.86 17.268 673.411 17.2508 673.117 17.0181 672.979 16.5701L672.047 13.0286 670.338 12.951C670.389 15.4498 670.415 17.3197 670.415 18.5605 670.415 19.7669 670.389 21.6109 670.338 24.0925L672.047 24.2218 673.005 20.5769C673.143 20.1116 673.411 19.8703 673.808 19.8531 675.569 19.8186 677.209 19.8014 678.729 19.8014L680.101 19.8014 680.101 28.668C680.101 30.5637 680.084 32.4422 680.049 34.3034L669.69 34.3034 666.427 27.5048 664.847 27.2721 665.469 36.9402 665.65 37.1211C669.949 37.0695 674.136 37.0436 678.21 37.0436L685.073 37.0436C687.301 37.0436 689.597 37.0695 691.962 37.1211L692.092 35.8286 688.621 34.8721C688.19 34.7515 687.957 34.4844 687.922 34.0708 687.905 33.3815 687.892 32.6102 687.883 31.7571 687.875 30.9041 687.87 29.9606 687.87 28.9265L687.87 8.32374C687.87 7.46212 687.875 6.67799 687.883 5.97137 687.892 5.26485 687.905 4.61853 687.922 4.03261 687.939 3.5845 688.147 3.30019 688.544 3.17959L692.014 2.17136ZM752.135 0.853023C749.718 0.921923 747.422 0.956426 745.246 0.956426L738.694 0.956426C734.499 0.956426 730.148 0.921923 725.642 0.853023L725.46 1.05983 727.066 9.66798 728.464 9.87478 730.122 3.5932 740.144 3.5932 740.144 17.3197 738.746 17.3197C737.244 17.3197 735.629 17.3025 733.903 17.268 733.454 17.2508 733.161 17.0181 733.022 16.5701L732.09 13.0286 730.381 12.951C730.433 15.4498 730.459 17.3197 730.459 18.5605 730.459 19.7669 730.433 21.6109 730.381 24.0925L732.09 24.2218 733.048 20.5769C733.187 20.1116 733.454 19.8703 733.851 19.8531 735.612 19.8186 737.252 19.8014 738.772 19.8014L740.144 19.8014 740.144 28.668C740.144 30.5637 740.127 32.4422 740.092 34.3034L729.733 34.3034 726.47 27.5048 724.891 27.2721 725.512 36.9402 725.693 37.1211C729.992 37.0695 734.179 37.0436 738.254 37.0436L745.117 37.0436C747.344 37.0436 749.64 37.0695 752.005 37.1211L752.135 35.8286 748.665 34.8721C748.233 34.7515 748 34.4844 747.965 34.0708 747.948 33.3815 747.935 32.6102 747.927 31.7571 747.918 30.9041 747.914 29.9606 747.914 28.9265L747.914 8.32374C747.914 7.46212 747.918 6.67799 747.927 5.97137 747.935 5.26485 747.948 4.61853 747.965 4.03261 747.983 3.5845 748.19 3.30019 748.587 3.17959L752.057 2.17136ZM792.811 0.853023C790.394 0.921923 788.538 0.956426 787.243 0.956426 785.551 0.956426 783.946 0.921923 782.426 0.853023L765.204 22.3863C764.514 23.2481 763.806 24.1615 763.081 25.1265 763.115 23.9374 763.133 22.7914 763.133 21.6884L763.133 8.22033C763.133 6.54869 763.15 5.10975 763.184 3.90341 763.202 3.507 763.426 3.24849 763.858 3.12789L767.173 2.22306 767.25 0.853023C764.868 0.921923 762.934 0.956426 761.449 0.956426 759.93 0.956426 758.005 0.921923 755.674 0.853023L755.544 2.17136 759.067 3.17959C759.464 3.30019 759.671 3.5845 759.688 4.03261 759.74 5.17005 759.766 6.60039 759.766 8.32374L759.766 37.0436 762.744 37.3279 783.151 11.8135C783.756 11.038 784.455 10.1161 785.249 9.04756 785.215 10.3229 785.197 11.4947 785.197 12.5633L785.197 28.9265C785.197 30.9601 785.18 32.6403 785.146 33.9674 785.128 34.4672 784.912 34.7687 784.498 34.8721L781.183 35.7769 781.105 37.1211C783.436 37.0695 785.353 37.0436 786.855 37.0436 788.339 37.0436 790.282 37.0695 792.682 37.1211L792.811 35.8286 789.341 34.8721C788.892 34.7343 788.659 34.4672 788.642 34.0708 788.607 32.6748 788.59 30.9601 788.59 28.9265L788.59 8.32374C788.59 6.60039 788.607 5.17005 788.642 4.03261 788.659 3.5845 788.866 3.30019 789.263 3.17959L792.734 2.17136ZM893.237 0.853023C890.819 0.921923 888.523 0.956426 886.348 0.956426L879.796 0.956426C875.6 0.956426 871.25 0.921923 866.743 0.853023L866.562 1.05983 868.168 9.66798 869.566 9.87478 871.224 3.5932 881.246 3.5932 881.246 17.3197 879.848 17.3197C878.345 17.3197 876.731 17.3025 875.005 17.268 874.556 17.2508 874.262 17.0181 874.124 16.5701L873.192 13.0286 871.483 12.951C871.534 15.4498 871.56 17.3197 871.56 18.5605 871.56 19.7669 871.534 21.6109 871.483 24.0925L873.192 24.2218 874.15 20.5769C874.288 20.1116 874.556 19.8703 874.953 19.8531 876.714 19.8186 878.354 19.8014 879.873 19.8014L881.246 19.8014 881.246 28.668C881.246 30.5637 881.229 32.4422 881.194 34.3034L870.835 34.3034 867.572 27.5048 865.992 27.2721 866.614 36.9402 866.795 37.1211C871.094 37.0695 875.281 37.0436 879.355 37.0436L886.218 37.0436C888.446 37.0436 890.742 37.0695 893.107 37.1211L893.237 35.8286 889.766 34.8721C889.335 34.7515 889.102 34.4844 889.067 34.0708 889.05 33.3815 889.037 32.6102 889.028 31.7571 889.02 30.9041 889.015 29.9606 889.015 28.9265L889.015 8.32374C889.015 7.46212 889.02 6.67799 889.028 5.97137 889.037 5.26485 889.05 4.61853 889.067 4.03261 889.084 3.5845 889.292 3.30019 889.689 3.17959L893.159 2.17136ZM924 0.853023C921.773 0.921923 919.2 0.956426 916.282 0.956426 913.278 0.956426 910.671 0.921923 908.461 0.853023L908.332 2.17136 911.543 3.12789C911.958 3.23129 912.182 3.4898 912.217 3.90341 912.234 4.52383 912.247 5.40695 912.255 6.55299 912.264 7.69902 912.268 8.25484 912.268 8.22033L912.268 28.668C912.268 30.5637 912.251 32.4422 912.217 34.3034L902.091 34.3034 898.543 26.9619 896.963 26.7293 897.61 36.9402 897.792 37.1211C902.056 37.0695 906.226 37.0436 910.3 37.0436L916.723 37.0436C919.295 37.0436 921.678 37.0695 923.87 37.1211L924 35.8286 920.789 34.8721C920.357 34.7515 920.124 34.4844 920.089 34.0708 920.072 33.3815 920.059 32.6102 920.051 31.7571 920.042 30.9041 920.038 29.9606 920.038 28.9265L920.038 8.32374C920.038 7.46212 920.042 6.67799 920.051 5.97137 920.059 5.26485 920.072 4.61853 920.089 4.03261 920.107 3.5845 920.314 3.30019 920.711 3.17959L923.922 2.17136ZM351.284 0.723821C346.846 0.723821 343.519 1.46484 341.3 2.94688 339.081 4.42903 337.972 6.59179 337.972 9.43537 337.972 12.0031 338.65 14.0755 340.005 15.6524 341.36 17.2292 343.35 18.4399 345.974 19.2844 344.524 21.4213 343.406 23.1533 342.621 24.4803 341.835 25.8072 341.045 27.1127 340.251 28.3966 339.457 29.6806 338.736 30.8136 338.089 31.7959 337.441 32.7783 336.833 33.5538 336.263 34.1225 335.952 34.381 335.654 34.605 335.369 34.7946 335.085 34.9841 334.787 35.1479 334.476 35.2857 334.165 35.4236 333.833 35.5399 333.479 35.6347 333.125 35.7295 332.732 35.82 332.301 35.9061L332.197 37.2245C333.889 37.4658 335.823 37.5864 337.998 37.5864 339.725 37.5864 340.933 37.4744 341.624 37.2504 342.314 37.0264 342.927 36.7076 343.462 36.294 344.257 35.6735 344.986 34.8635 345.651 33.864 346.315 32.8645 347.019 31.7356 347.761 30.4776 348.504 29.2195 349.268 27.8839 350.053 26.4708 350.839 25.0576 351.663 23.6617 352.527 22.2829 352.786 21.8866 352.997 21.5592 353.161 21.3007 353.325 21.0422 353.489 20.8483 353.653 20.719 353.817 20.5898 353.99 20.495 354.171 20.4347 354.352 20.3744 354.581 20.3356 354.857 20.3184L355.945 20.2925 355.945 28.9265C355.945 29.9606 355.941 30.8869 355.932 31.7054 355.923 32.524 355.911 33.2694 355.893 33.9415 355.876 34.493 355.678 34.829 355.298 34.9497L352.604 35.8286 352.527 37.1211C354.443 37.0695 356.817 37.0436 359.648 37.0436 362.67 37.0436 365.363 37.0695 367.728 37.1211L367.858 35.8286 364.388 34.8721C363.956 34.7515 363.723 34.4844 363.688 34.0708 363.671 33.3815 363.658 32.6102 363.65 31.7571 363.641 30.9041 363.637 29.9606 363.637 28.9265L363.637 8.32374C363.637 7.46212 363.641 6.67799 363.65 5.97137 363.658 5.26485 363.671 4.61853 363.688 4.03261 363.706 3.5845 363.913 3.30019 364.31 3.17959L367.78 2.17136 367.858 0.853023C365.441 0.921923 362.963 0.956426 360.425 0.956426 359.89 0.956426 359.225 0.943527 358.431 0.917624 357.637 0.891825 356.67 0.861622 355.531 0.827225 354.495 0.792722 353.627 0.766819 352.928 0.74962 352.229 0.732421 351.681 0.723821 351.284 0.723821ZM845.286 0.697918C840.918 0.697918 837.625 1.40024 835.407 2.80478 833.188 4.20932 832.079 6.22988 832.079 8.86666 832.079 13.0027 834.53 15.8635 839.434 17.449 836.585 17.8453 834.388 18.8362 832.843 20.4218 831.297 22.0072 830.525 23.9891 830.525 26.3674 830.525 29.8141 831.915 32.4809 834.694 34.3681 837.474 36.2551 841.41 37.1987 846.504 37.1987 847.505 37.1987 848.554 37.1728 849.65 37.1211 850.747 37.0695 852.115 37.0436 853.755 37.0436 856.276 37.0436 858.719 37.0695 861.084 37.1211L861.213 35.8286 857.743 34.8721C857.312 34.7515 857.078 34.4844 857.044 34.0708 857.027 33.3815 857.014 32.6102 857.005 31.7571 856.997 30.9041 856.992 29.9606 856.992 28.9265L856.992 8.32374C856.992 7.46212 856.997 6.67799 857.005 5.97137 857.014 5.26485 857.027 4.61853 857.044 4.03261 857.061 3.5845 857.268 3.30019 857.666 3.17959L861.136 2.17136 861.213 0.853023C858.796 0.921923 856.31 0.956426 853.755 0.956426 852.823 0.921923 851.364 0.870222 849.378 0.801321 847.393 0.732421 846.029 0.697918 845.286 0.697918ZM149.491 0.284306 138.329 31.7184C137.898 32.9248 137.505 33.7391 137.151 34.1613 136.797 34.5835 136.292 34.8894 135.636 35.0789L133.098 35.8286 133.02 37.1211C135.351 37.0695 137.699 37.0436 140.064 37.0436 143.189 37.0436 146.237 37.0695 149.206 37.1211L149.336 35.8286 146.772 35.0789C146.427 34.9755 146.176 34.8463 146.021 34.6912 145.865 34.5361 145.788 34.3034 145.788 33.9932 145.788 33.6486 145.874 33.1962 146.047 32.636 146.219 32.076 146.47 31.3392 146.798 30.4259L148.507 25.5659 159.125 25.5659 160.964 30.4C161.326 31.3479 161.607 32.1104 161.805 32.6877 162.004 33.2651 162.103 33.7089 162.103 34.0191 162.103 34.3121 162.026 34.5361 161.87 34.6912 161.715 34.8463 161.473 34.9669 161.145 35.0531L158.659 35.7769 158.581 37.1211C161.085 37.0695 163.122 37.0436 164.693 37.0436 166.333 37.0436 168.206 37.0695 170.313 37.1211L170.442 35.8286 167.671 35.0014C167.015 34.8118 166.532 34.4973 166.221 34.0579 165.91 33.6184 165.565 32.9506 165.185 32.0544L152.288 0.697918ZM276.583 0.284306 265.421 31.7184C264.989 32.9248 264.596 33.7391 264.243 34.1613 263.889 34.5835 263.384 34.8894 262.728 35.0789L260.19 35.8286 260.112 37.1211C262.443 37.0695 264.791 37.0436 267.156 37.0436 270.281 37.0436 273.328 37.0695 276.298 37.1211L276.427 35.8286 273.863 35.0789C273.518 34.9755 273.268 34.8463 273.112 34.6912 272.957 34.5361 272.879 34.3034 272.879 33.9932 272.879 33.6486 272.966 33.1962 273.138 32.636 273.311 32.076 273.561 31.3392 273.889 30.4259L275.599 25.5659 286.217 25.5659 288.055 30.4C288.418 31.3479 288.698 32.1104 288.897 32.6877 289.096 33.2651 289.195 33.7089 289.195 34.0191 289.195 34.3121 289.117 34.5361 288.962 34.6912 288.806 34.8463 288.565 34.9669 288.237 35.0531L285.75 35.7769 285.673 37.1211C288.176 37.0695 290.213 37.0436 291.785 37.0436 293.425 37.0436 295.298 37.0695 297.404 37.1211L297.534 35.8286 294.763 35.0014C294.107 34.8118 293.623 34.4973 293.312 34.0579 293.002 33.6184 292.656 32.9506 292.277 32.0544L279.38 0.697918ZM486.734 0.284306 475.572 31.7184C475.141 32.9248 474.748 33.7391 474.394 34.1613 474.04 34.5835 473.535 34.8894 472.879 35.0789L470.341 35.8286 470.263 37.1211C472.594 37.0695 474.942 37.0436 477.307 37.0436 480.432 37.0436 483.48 37.0695 486.449 37.1211L486.579 35.8286 484.015 35.0789C483.67 34.9755 483.419 34.8463 483.264 34.6912 483.108 34.5361 483.031 34.3034 483.031 33.9932 483.031 33.6486 483.117 33.1962 483.29 32.636 483.462 32.076 483.713 31.3392 484.041 30.4259L485.75 25.5659 496.368 25.5659 498.207 30.4C498.569 31.3479 498.85 32.1104 499.048 32.6877 499.247 33.2651 499.346 33.7089 499.346 34.0191 499.346 34.3121 499.269 34.5361 499.113 34.6912 498.958 34.8463 498.716 34.9669 498.388 35.0531L495.902 35.7769 495.824 37.1211C498.328 37.0695 500.365 37.0436 501.936 37.0436 503.576 37.0436 505.449 37.0695 507.556 37.1211L507.685 35.8286 504.914 35.0014C504.258 34.8118 503.775 34.4973 503.464 34.0579 503.153 33.6184 502.808 32.9506 502.428 32.0544L489.531 0.697918ZM809.967 0.284306 798.805 31.7184C798.374 32.9248 797.981 33.7391 797.627 34.1613 797.273 34.5835 796.768 34.8894 796.112 35.0789L793.574 35.8286 793.496 37.1211C795.827 37.0695 798.175 37.0436 800.54 37.0436 803.665 37.0436 806.713 37.0695 809.682 37.1211L809.812 35.8286 807.248 35.0789C806.903 34.9755 806.652 34.8463 806.497 34.6912 806.341 34.5361 806.264 34.3034 806.264 33.9932 806.264 33.6486 806.35 33.1962 806.523 32.636 806.695 32.076 806.946 31.3392 807.274 30.4259L808.983 25.5659 819.601 25.5659 821.44 30.4C821.802 31.3479 822.083 32.1104 822.281 32.6877 822.48 33.2651 822.579 33.7089 822.579 34.0191 822.579 34.3121 822.502 34.5361 822.346 34.6912 822.191 34.8463 821.949 34.9669 821.621 35.0531L819.135 35.7769 819.057 37.1211C821.56 37.0695 823.598 37.0436 825.169 37.0436 826.809 37.0436 828.682 37.0695 830.789 37.1211L830.918 35.8286 828.147 35.0014C827.491 34.8118 827.008 34.4973 826.697 34.0579 826.386 33.6184 826.041 32.9506 825.661 32.0544L812.764 0.697918ZM311.131 0.258508C307.954 0.258508 304.829 0.611714 301.756 1.31834L301.574 1.55094 303.232 10.3918 304.682 10.5986 306.495 3.4639C307.945 2.99858 309.637 2.76598 311.571 2.76598 315.438 2.76598 318.455 4.20062 320.622 7.07 322.789 9.93938 323.872 13.8816 323.872 18.8965 323.872 24.1356 322.784 28.22 320.609 31.1497 318.434 34.0794 315.386 35.5442 311.467 35.5442 310.535 35.5442 309.534 35.4667 308.463 35.3116L308.463 28.5129C308.463 27.6513 308.467 26.8672 308.476 26.1606 308.485 25.4539 308.498 24.8077 308.515 24.2218 308.532 23.7737 308.748 23.4894 309.162 23.3687L312.684 22.3605 312.762 21.068C310.31 21.1197 307.652 21.1456 304.786 21.1456 301.833 21.1456 299.304 21.1197 297.198 21.068L297.042 22.3605 300.124 23.2136C300.538 23.3343 300.763 23.5928 300.797 23.9891 300.815 24.6784 300.828 25.3807 300.836 26.096 300.845 26.8111 300.849 27.5823 300.849 28.4095L300.849 36.5525 301.03 36.7334C304.743 37.5778 308.273 38 311.623 38 317.907 38 322.961 36.3974 326.786 33.1919 330.61 29.9864 332.522 25.5143 332.522 19.7755 332.522 13.6748 330.61 8.89675 326.786 5.44146 322.961 1.98616 317.743 0.258508 311.131 0.258508ZM539.019 0.258508C535.981 0.258508 532.873 0.611714 529.696 1.31834L529.541 1.57684 531.224 10.6245 532.649 10.8571 534.617 3.4381C535.981 3.00718 537.457 2.79178 539.045 2.79178 542.861 2.79178 545.813 4.21792 547.902 7.07 549.991 9.92219 551.036 13.6576 551.036 18.2761 551.036 23.205 549.806 27.1343 547.345 30.064 544.885 32.9937 541.471 34.4585 537.103 34.4585 534.669 34.4585 532.105 33.9674 529.411 32.9851L529.075 34.4585C532.528 36.8023 536.43 37.9742 540.78 37.9742 546.426 37.9742 550.988 36.2766 554.467 32.8817 557.946 29.4867 559.686 25.0145 559.686 19.4653 559.686 13.5542 557.778 8.87526 553.962 5.42856 550.147 1.98186 545.166 0.258508 539.019 0.258508ZM618.297 0.258508C615.742 0.258508 612.832 0.654816 609.569 1.44754L609.414 1.68025 610.994 10.0041 612.418 10.2367 614.308 3.30879C615.413 2.87798 616.613 2.66258 617.908 2.66258 619.738 2.66258 621.288 3.19679 622.557 4.26532 623.826 5.33375 624.46 6.71239 624.46 8.40134 624.46 9.41807 624.253 10.2884 623.839 11.0122 623.424 11.736 622.872 12.3823 622.181 12.951 621.491 13.5197 620.701 14.0281 619.812 14.4761 618.923 14.9242 618.003 15.3723 617.054 15.8204 616 16.3202 614.939 16.8673 613.868 17.4619 612.798 18.0564 611.84 18.763 610.994 19.5817 610.148 20.4002 609.461 21.3782 608.935 22.5156 608.408 23.6531 608.145 25.0317 608.145 26.6517 608.145 30.1502 609.466 32.8988 612.107 34.898 614.749 36.8971 618.236 37.8966 622.57 37.8966 625.695 37.8966 628.777 37.4055 631.815 36.4232L631.971 36.1906 630.598 26.8844 628.992 26.6259 627.05 34.5361C625.807 35.1048 624.426 35.3891 622.906 35.3891 620.714 35.3891 618.949 34.8334 617.61 33.7218 616.272 32.6102 615.603 31.1238 615.603 29.2626 615.603 28.2113 615.811 27.3195 616.225 26.5871 616.639 25.8546 617.2 25.1997 617.908 24.6224 618.616 24.0451 619.419 23.5324 620.317 23.0844 621.215 22.6363 622.147 22.1882 623.114 21.7401 624.167 21.2231 625.22 20.6803 626.273 20.1116 627.326 19.5429 628.267 18.8535 629.096 18.0435 629.925 17.2335 630.598 16.2642 631.116 15.1353 631.634 14.0065 631.893 12.6408 631.893 11.038 631.893 7.74642 630.633 5.12695 628.112 3.17959 625.591 1.23213 622.319 0.258508 618.297 0.258508ZM706.36 0.258508C703.805 0.258508 700.896 0.654816 697.633 1.44754L697.477 1.68025 699.057 10.0041 700.481 10.2367 702.372 3.30879C703.477 2.87798 704.677 2.66258 705.972 2.66258 707.802 2.66258 709.351 3.19679 710.62 4.26532 711.889 5.33375 712.524 6.71239 712.524 8.40134 712.524 9.41807 712.317 10.2884 711.902 11.0122 711.488 11.736 710.935 12.3823 710.245 12.951 709.554 13.5197 708.764 14.0281 707.875 14.4761 706.986 14.9242 706.067 15.3723 705.117 15.8204 704.064 16.3202 703.002 16.8673 701.932 17.4619 700.861 18.0564 699.903 18.763 699.057 19.5817 698.211 20.4002 697.525 21.3782 696.998 22.5156 696.472 23.6531 696.208 25.0317 696.208 26.6517 696.208 30.1502 697.529 32.8988 700.171 34.898 702.812 36.8971 706.3 37.8966 710.633 37.8966 713.758 37.8966 716.84 37.4055 719.879 36.4232L720.034 36.1906 718.662 26.8844 717.056 26.6259 715.114 34.5361C713.87 35.1048 712.489 35.3891 710.97 35.3891 708.777 35.3891 707.012 34.8334 705.674 33.7218 704.336 32.6102 703.667 31.1238 703.667 29.2626 703.667 28.2113 703.874 27.3195 704.288 26.5871 704.703 25.8546 705.264 25.1997 705.972 24.6224 706.68 24.0451 707.482 23.5324 708.38 23.0844 709.278 22.6363 710.21 22.1882 711.177 21.7401 712.23 21.2231 713.284 20.6803 714.337 20.1116 715.39 19.5429 716.331 18.8535 717.159 18.0435 717.988 17.2335 718.662 16.2642 719.18 15.1353 719.697 14.0065 719.956 12.6408 719.956 11.038 719.956 7.74642 718.696 5.12695 716.175 3.17959 713.655 1.23213 710.383 0.258508 706.36 0.258508ZM60.3472 0C54.339 0 49.6947 1.62425 46.4143 4.87274 43.134 8.12123 41.4938 12.5547 41.4938 18.1727 41.4938 24.1356 43.2549 28.9308 46.7769 32.5585 50.299 36.1862 55.2022 38 61.4867 38 67.4949 38 72.1392 36.3241 75.4196 32.9722 78.7 29.6202 80.3402 25.0834 80.3402 19.3619 80.3402 13.3991 78.5705 8.68135 75.0312 5.20875 71.4918 1.73625 66.5972 0 60.3472 0ZM391.586 0C385.578 0 380.933 1.62425 377.653 4.87274 374.373 8.12123 372.733 12.5547 372.733 18.1727 372.733 24.1356 374.494 28.9308 378.016 32.5585 381.538 36.1862 386.441 38 392.725 38 398.734 38 403.378 36.3241 406.658 32.9722 409.939 29.6202 411.579 25.0834 411.579 19.3619 411.579 13.3991 409.809 8.68135 406.27 5.20875 402.731 1.73625 397.836 0 391.586 0ZM583.724 0C577.716 0 573.072 1.62425 569.792 4.87274 566.511 8.12123 564.871 12.5547 564.871 18.1727 564.871 24.1356 566.632 28.9308 570.154 32.5585 573.676 36.1862 578.58 38 584.864 38 590.872 38 595.516 36.3241 598.797 32.9722 602.077 29.6202 603.717 25.0834 603.717 19.3619 603.717 13.3991 601.948 8.68135 598.408 5.20875 594.869 1.73625 589.974 0 583.724 0Z" fill-rule="evenodd" transform="matrix(-1 0 0 1 1003 876)"/></g></svg>