<svg width="452" height="452" xmlns="http://www.w3.org/2000/svg" xmlns:xlink="http://www.w3.org/1999/xlink" overflow="hidden"><defs><clipPath id="clip0"><rect x="414" y="134" width="452" height="452"/></clipPath></defs><g clip-path="url(#clip0)" transform="translate(-414 -134)"><path d="M605.989 197.181C616.757 184.485 635.577 179.591 651.18 185.376 661.388 189.085 670.198 196.835 674.688 206.786 679.715 217.149 679.869 229.632 675.49 240.252 671.95 248.834 665.377 256.165 657.237 260.625 647.331 266.27 635.01 267.219 624.22 263.731 613.43 260.22 604.171 252.058 599.593 241.643 592.822 227.291 595.391 209.031 605.989 197.181Z" fill="#002060"/><path d="M558.87 229.028C563.36 227.468 567.769 225.561 572.464 224.708 573.318 230.345 576.152 235.652 576.424 241.341 555.139 247.443 535.274 258.542 519.06 273.645 495.787 295.232 480.096 324.826 475.348 356.217 470.69 386.665 476.32 418.63 491.386 445.516 497.922 457.668 506.496 468.656 516.226 478.408 511.957 482.398 508.145 486.858 503.832 490.81 488.67 475.332 476.099 457.175 468.091 436.986 456.411 408.665 453.467 376.877 459.407 346.855 466.031 312.991 484.011 281.446 509.882 258.615 524.212 245.86 540.897 235.74 558.87 229.028Z" fill="#002060"/><path d="M691.579 258.505C694.597 253.53 697.857 248.701 701.007 243.814 709.023 249.415 717.06 255.09 723.971 262.038 736.166 273.394 746.456 286.782 754.427 301.414 758.57 308.811 761.706 316.694 764.929 324.51 758.519 324.569 752.16 323.649 745.764 323.398 734.805 296.969 715.786 273.836 691.579 258.505Z" fill="#002060"/><path d="M587.125 291.11C607.741 284.376 630.572 285.649 650.599 293.789 648.523 299.206 646.028 304.446 643.901 309.841 635.209 306.191 625.847 304.196 616.426 303.88 601.927 303.799 587.354 307.81 575.202 315.788 562.771 323.811 552.747 335.719 547.33 349.512 541.824 347.827 536.643 345.17 531.211 343.241 540.706 318.592 561.998 299.074 587.125 291.11Z" fill="#002060"/><path d="M660.976 300.192C664.73 299.397 669.138 300.133 671.678 303.254 676.462 307.876 674.997 317.025 669.028 319.976 663.53 323.185 655.559 320.204 653.749 314.037 651.511 308.406 655.265 301.767 660.976 300.192Z" fill="#002060"/><path d="M594.92 346.274C599.52 345.906 604.135 346.229 608.742 346.097 608.911 365.888 608.793 385.687 608.801 405.485 621.121 405.507 633.45 405.441 645.77 405.522 645.689 409.658 646.021 413.809 645.66 417.938L645.204 418.159C628.474 418.328 611.73 418.063 595.001 418.292 594.957 394.283 595.111 370.275 594.92 346.274Z" fill="#002060"/><path d="M698.748 353.089C705.07 347.79 713.608 346.023 721.682 346.112 728.946 346.303 736.483 347.885 742.327 352.441 745.116 354.509 747.037 357.446 748.833 360.368 745.307 362.554 741.524 364.269 737.859 366.205 733.605 360.272 725.862 357.755 718.797 358.27 714.911 358.535 710.59 359.396 707.97 362.532 706.034 364.512 705.607 367.603 706.513 370.164 707.999 373.049 711.216 374.374 714.197 375.14 721.019 376.832 728.195 376.759 734.878 379.07 740.612 380.741 746.308 384.06 748.936 389.654 751.681 395.733 751.777 403.115 748.87 409.15 746.132 415.083 740.214 418.814 734.15 420.661 724.891 423.399 714.785 423.164 705.563 420.374 698.019 418.063 692.087 411.999 689.18 404.756 692.904 402.651 696.797 400.878 700.492 398.707 702.067 401.327 703.657 404.065 706.24 405.831 711.93 410.004 719.385 410.703 726.186 409.739 729.196 409.143 732.302 408.186 734.577 406.022 738.212 402.732 738.22 396.02 734.069 393.15 729.564 390.014 723.941 389.462 718.649 388.8 711.584 387.836 704.172 386.349 698.505 381.727 690.284 374.61 690.335 360.052 698.748 353.089Z" fill="#002060"/><path d="M814.028 347.083C823.758 345.074 834.423 346.06 843.064 351.219 849.482 355.047 854.538 361.06 857.239 368.022 862.075 379.894 861.103 394.048 854.538 405.073 849.916 412.794 841.996 418.373 833.201 420.227 824.023 422.178 814.094 421.589 805.527 417.592 798.786 414.376 793.258 408.731 790.086 401.982 784.389 389.801 784.978 374.838 791.713 363.187 796.364 354.936 804.799 349.034 814.028 347.083M817.892 359.235C813.572 360.044 809.516 362.208 806.506 365.417 798.491 374.109 797.829 388.079 803.511 398.169 807.183 404.948 814.963 408.679 822.507 408.584 829.087 408.856 836.145 406.736 840.539 401.606 844.727 396.903 846.449 390.493 846.655 384.318 846.722 377.2 844.572 369.715 839.295 364.71 833.797 359.198 825.304 357.77 817.892 359.235Z" fill="#002060"/><path d="M527.016 357.623C533.581 355.635 541.398 358.094 545.306 363.82 550.517 370.473 549.413 381.131 542.877 386.526 536.621 392.34 525.86 392.031 519.928 385.9 514.857 381.087 513.378 372.954 516.454 366.676 518.397 362.289 522.423 358.933 527.016 357.623Z" fill="#002060"/><path d="M527.752 401.739C533.338 400.23 538.888 398.596 544.489 397.139 551.275 422.31 572.648 442.712 598.004 448.622 612.017 452.162 627.046 451.132 640.559 446.098 641.487 445.767 642.451 445.568 643.415 445.369 645.226 450.808 648.148 455.857 649.59 461.414 639.676 465.035 629.284 467.633 618.685 467.928 589.569 469.326 560.291 455.445 542.818 432.128 535.907 423.083 530.777 412.713 527.752 401.739Z" fill="#002060"/><path d="M659.475 436.221C662.161 435.691 664.914 436.773 666.975 438.465 670.051 441.1 670.839 445.921 668.866 449.447 666.437 455.04 657.878 455.879 654.058 451.294 651.195 448.056 651.084 442.727 653.859 439.408 655.265 437.715 657.318 436.611 659.475 436.221Z" fill="#002060"/><path d="M681.319 502.203C706.711 488.83 727.82 467.427 740.803 441.829 746.971 441.895 753.094 442.786 759.262 442.911 758.931 444.081 758.578 445.259 758.004 446.341 752.38 457.712 745.676 468.59 737.55 478.357 732.803 483.855 728.144 489.507 722.521 494.159 703.841 511.558 680.716 524.085 656.082 530.672 620.577 540.189 581.745 536.972 548.448 521.332 550.921 516.158 553.372 510.969 555.654 505.699 565.98 510.152 576.645 513.928 587.729 515.974 619.274 522.377 652.917 517.299 681.319 502.203Z" fill="#002060"/><path d="M524.006 484.112C528.628 482.743 533.765 483.259 537.96 485.658 544.334 488.992 548.014 496.514 547.035 503.594 546.321 510.697 540.875 516.931 533.979 518.719 526.964 520.751 518.883 517.895 514.681 511.926 512.097 508.496 510.978 504.088 511.369 499.833 511.773 492.628 517.109 486.129 524.006 484.112Z" fill="#002060"/></g></svg>