<?xml version="1.0" encoding="UTF-8" ?>
<!DOCTYPE svg PUBLIC "-//W3C//DTD SVG 1.1//EN" "http://www.w3.org/Graphics/SVG/1.1/DTD/svg11.dtd">
<svg width="512pt" height="512pt" viewBox="0 0 512 512" version="1.1" xmlns="http://www.w3.org/2000/svg">
<g id="#000000ff">
<path fill="#000000" opacity="1.00" d=" M 20.51 0.00 L 54.53 0.00 C 70.72 0.52 86.79 5.65 100.00 15.07 C 114.46 25.22 125.51 40.13 130.91 56.96 C 132.99 63.55 134.49 70.30 136.25 76.98 C 258.86 77.04 381.47 76.95 504.09 77.03 C 507.93 76.76 511.20 79.71 512.00 83.35 L 512.00 85.56 C 497.85 140.60 483.83 195.68 469.73 250.73 C 467.41 259.58 465.72 268.83 460.74 276.68 C 451.57 292.14 434.00 302.05 416.03 301.98 C 389.97 302.01 363.92 302.02 337.86 301.98 C 335.91 310.16 331.59 317.83 325.06 323.21 C 318.14 329.10 309.02 332.19 299.96 332.00 C 261.33 331.98 222.70 332.04 184.07 331.97 C 181.69 332.09 179.07 331.55 176.92 332.85 C 159.67 342.64 142.43 352.44 125.16 362.20 C 122.86 363.43 120.62 365.30 120.19 368.02 C 119.26 371.84 121.99 376.06 125.85 376.76 C 129.21 377.22 132.61 376.95 135.99 377.00 C 243.67 377.00 351.35 376.99 459.04 377.00 C 466.30 376.84 473.51 380.41 477.72 386.34 C 482.76 393.15 483.38 402.87 479.23 410.26 C 475.36 417.53 467.27 422.19 459.05 421.99 C 348.70 422.00 238.36 422.01 128.01 421.99 C 115.27 422.09 102.58 417.43 93.02 409.00 C 82.61 400.00 76.01 386.77 75.16 373.04 C 73.92 357.16 80.60 340.99 92.47 330.42 C 97.29 325.99 103.15 322.98 108.81 319.78 C 121.33 312.60 133.92 305.56 146.44 298.38 C 127.23 223.36 108.07 148.32 88.85 73.29 C 85.26 58.24 71.48 46.39 56.03 45.20 C 48.03 44.76 40.01 45.11 31.99 45.00 C 25.67 44.85 18.96 45.80 13.07 42.91 C 5.82 39.65 0.85 32.34 0.00 24.49 L 0.00 20.60 C 0.89 9.96 9.89 0.95 20.51 0.00 M 16.27 18.35 C 12.99 22.78 16.45 29.86 21.97 29.92 C 32.64 30.15 43.33 29.87 54.01 30.05 C 64.76 30.29 75.31 34.06 83.95 40.43 C 87.52 36.89 91.08 33.32 94.63 29.75 C 87.33 24.02 78.91 19.69 69.93 17.31 C 56.91 13.73 43.28 15.38 29.96 15.00 C 25.34 15.24 19.23 13.70 16.27 18.35 M 94.58 51.07 C 98.72 56.75 101.78 63.19 103.50 70.01 C 123.10 146.59 142.68 223.18 162.27 299.76 C 163.36 303.15 161.81 307.07 158.65 308.73 C 142.52 317.91 126.36 327.05 110.21 336.20 C 98.19 342.40 90.05 355.42 90.02 368.98 C 89.83 379.68 94.51 390.34 102.54 397.43 C 109.43 403.66 118.70 407.08 127.97 406.99 C 233.00 407.00 338.03 407.02 443.06 406.98 C 448.74 406.95 454.43 407.12 460.12 406.92 C 463.29 406.77 466.12 404.26 466.78 401.18 C 467.92 396.97 464.54 392.27 460.18 392.08 C 454.48 391.87 448.76 392.05 443.06 392.02 C 338.02 391.97 232.99 392.02 127.96 392.00 C 121.45 392.12 114.95 389.30 110.67 384.39 C 106.04 379.24 104.04 371.89 105.46 365.11 C 106.71 358.64 111.00 352.90 116.76 349.74 C 135.29 339.23 153.80 328.71 172.35 318.25 C 174.03 317.19 176.02 316.94 177.96 316.99 C 215.65 317.02 253.33 316.98 291.01 317.01 C 297.34 316.81 304.03 317.81 309.97 315.07 C 315.67 312.67 320.02 307.73 322.24 302.02 C 314.92 301.98 307.59 301.99 300.27 302.01 C 261.84 301.98 223.41 302.01 184.98 302.00 C 181.20 302.35 177.45 299.69 176.78 295.91 C 157.15 219.31 137.60 142.68 117.98 66.07 C 115.63 56.73 111.26 47.91 105.26 40.36 C 101.69 43.92 98.11 47.47 94.58 51.07 M 140.10 92.01 C 144.79 110.34 149.48 128.66 154.16 146.99 C 171.95 147.01 189.74 147.00 207.53 147.00 C 204.73 128.66 201.92 110.33 199.09 92.01 C 179.43 92.00 159.76 91.99 140.10 92.01 M 214.29 92.00 C 220.65 133.66 227.08 175.32 233.45 216.98 C 248.81 217.02 264.17 216.99 279.53 217.00 C 278.63 198.67 277.65 180.34 276.74 162.01 C 266.48 161.93 256.21 162.10 245.95 161.94 C 241.49 161.96 237.87 157.26 238.96 152.94 C 239.63 149.30 243.26 146.71 246.91 147.01 C 256.59 146.97 266.28 147.02 275.96 147.00 C 275.03 128.67 274.09 110.34 273.15 92.01 C 253.53 91.99 233.91 92.00 214.29 92.00 M 288.17 92.01 C 289.11 110.34 290.04 128.67 290.99 146.99 C 308.75 147.01 326.52 146.99 344.28 147.01 C 345.28 128.68 346.17 110.34 347.12 92.01 C 327.47 92.00 307.82 91.99 288.17 92.01 M 362.14 92.01 C 361.22 110.34 360.25 128.67 359.34 147.00 C 377.09 146.99 394.84 147.02 412.59 146.98 C 415.38 128.66 418.21 110.33 421.01 92.01 C 401.39 92.00 381.76 91.99 362.14 92.01 M 436.19 92.01 C 433.39 110.34 430.56 128.66 427.77 146.99 C 445.44 147.00 463.11 147.01 480.79 146.99 C 485.46 128.66 490.15 110.34 494.84 92.01 C 475.29 91.99 455.74 91.99 436.19 92.01 M 158.00 162.01 C 162.69 180.34 167.37 198.67 172.07 216.99 C 187.47 217.01 202.87 217.00 218.28 216.99 C 215.48 198.66 212.64 180.34 209.85 162.01 C 192.57 161.99 175.29 162.00 158.00 162.01 M 291.76 162.01 C 292.66 180.32 293.67 198.63 294.53 216.95 C 309.93 217.06 325.34 216.98 340.74 216.99 C 341.65 198.66 342.63 180.33 343.53 162.00 C 326.28 162.00 309.02 161.99 291.76 162.01 M 355.76 216.99 C 371.12 217.00 386.49 217.01 401.85 216.99 C 404.64 198.66 407.48 180.34 410.28 162.01 C 393.06 161.97 375.85 162.06 358.64 161.96 C 357.54 180.30 356.73 198.65 355.76 216.99 M 425.42 162.05 C 422.67 180.37 419.81 198.68 417.02 216.99 C 432.30 217.01 447.59 217.00 462.87 217.00 C 467.56 198.67 472.25 180.34 476.94 162.01 C 459.76 162.02 442.59 161.94 425.42 162.05 M 175.91 232.01 C 180.59 250.34 185.28 268.67 189.98 287.00 C 202.99 287.00 216.01 287.00 229.02 286.99 C 226.23 268.67 223.38 250.35 220.60 232.03 C 205.71 231.97 190.81 232.00 175.91 232.01 M 235.77 232.01 C 238.56 250.33 241.40 268.66 244.19 286.99 C 257.17 287.01 270.15 287.00 283.12 286.99 C 282.23 268.69 281.18 250.40 280.37 232.09 C 265.51 231.88 250.63 232.05 235.77 232.01 M 295.35 232.00 C 296.25 250.33 297.22 268.66 298.15 286.99 C 311.15 287.00 324.15 287.00 337.15 286.99 C 338.10 268.66 339.03 250.33 339.96 232.00 C 325.09 231.99 310.22 232.00 295.35 232.00 M 354.99 232.01 C 354.05 250.34 353.10 268.67 352.19 287.00 C 365.16 286.99 378.13 287.01 391.10 286.99 C 393.91 268.66 396.73 250.34 399.53 232.00 C 384.68 232.00 369.84 231.99 354.99 232.01 M 406.29 287.00 C 413.53 286.96 421.02 287.52 427.95 284.97 C 439.65 281.09 449.00 271.05 452.08 259.12 C 454.44 250.09 456.71 241.04 459.04 232.01 C 444.27 231.99 429.49 232.00 414.72 232.00 C 411.89 250.33 409.09 268.66 406.29 287.00 Z" />
<path fill="#000000" opacity="1.00" d=" M 147.04 447.03 C 158.90 435.61 178.50 433.77 192.32 442.69 C 202.68 449.08 209.53 460.77 209.93 472.94 C 210.47 483.98 205.73 495.08 197.49 502.41 C 191.58 507.84 183.86 510.85 176.00 512.00 L 169.28 512.00 C 156.25 510.63 144.07 502.43 138.58 490.43 C 131.60 476.14 135.18 457.65 147.04 447.03 M 154.31 461.29 C 148.89 468.52 148.58 479.06 153.55 486.60 C 157.61 493.10 165.10 496.99 172.70 497.07 C 179.48 496.83 186.16 493.70 190.28 488.24 C 195.88 481.20 196.53 470.71 191.83 463.03 C 187.95 456.31 180.43 452.13 172.71 451.93 C 165.56 452.00 158.48 455.41 154.31 461.29 Z" />
<path fill="#000000" opacity="1.00" d=" M 403.99 447.08 C 415.50 435.98 434.31 433.84 448.06 441.94 C 459.08 448.14 466.50 460.23 466.93 472.88 C 467.47 483.70 462.95 494.60 455.01 501.95 C 449.02 507.63 441.10 510.83 433.01 512.00 L 426.27 512.00 C 412.95 510.60 400.55 502.04 395.23 489.65 C 388.72 475.49 392.40 457.51 403.99 447.08 M 411.25 461.37 C 405.61 468.95 405.62 480.10 411.28 487.66 C 415.44 493.56 422.54 496.97 429.71 497.07 C 436.73 496.84 443.65 493.44 447.72 487.65 C 453.09 480.43 453.39 469.95 448.46 462.43 C 444.49 456.04 437.18 452.13 429.71 451.92 C 422.52 452.01 415.41 455.45 411.25 461.37 Z" />
<path fill="#000000" opacity="1.00" d=" M 165.03 475.04 C 164.54 470.55 168.57 467.09 172.77 466.73 C 176.74 467.43 180.45 470.75 179.96 475.06 C 179.82 478.96 176.32 481.55 172.77 482.26 C 168.97 481.85 165.18 479.13 165.03 475.04 Z" />
<path fill="#000000" opacity="1.00" d=" M 422.03 475.05 C 421.53 470.54 425.59 467.08 429.80 466.73 C 433.75 467.45 437.46 470.77 436.96 475.08 C 436.81 478.97 433.32 481.54 429.79 482.27 C 425.99 481.85 422.18 479.15 422.03 475.05 Z" />
</g>
<g id="#ff4c3bff">
<path fill="#ff4c3b" opacity="1.00" d=" M 16.27 18.35 C 19.23 13.70 25.34 15.24 29.96 15.00 C 43.28 15.38 56.91 13.73 69.93 17.31 C 78.91 19.69 87.33 24.02 94.63 29.75 C 91.08 33.32 87.52 36.89 83.95 40.43 C 75.31 34.06 64.76 30.29 54.01 30.05 C 43.33 29.87 32.64 30.15 21.97 29.92 C 16.45 29.86 12.99 22.78 16.27 18.35 Z" />
</g>
<g id="#b5cdffff">
<path fill="#b5cdff" opacity="1.00" d=" M 94.58 51.07 C 98.11 47.47 101.69 43.92 105.26 40.36 C 111.26 47.91 115.63 56.73 117.98 66.07 C 137.60 142.68 157.15 219.31 176.78 295.91 C 177.45 299.69 181.20 302.35 184.98 302.00 C 223.41 302.01 261.84 301.98 300.27 302.01 C 298.33 307.63 295.32 312.86 291.01 317.01 C 253.33 316.98 215.65 317.02 177.96 316.99 C 176.02 316.94 174.03 317.19 172.35 318.25 C 153.80 328.71 135.29 339.23 116.76 349.74 C 111.00 352.90 106.71 358.64 105.46 365.11 C 104.04 371.89 106.04 379.24 110.67 384.39 C 114.95 389.30 121.45 392.12 127.96 392.00 C 232.99 392.02 338.02 391.97 443.06 392.02 C 444.77 396.91 444.77 402.09 443.06 406.98 C 338.03 407.02 233.00 407.00 127.97 406.99 C 118.70 407.08 109.43 403.66 102.54 397.43 C 94.51 390.34 89.83 379.68 90.02 368.98 C 90.05 355.42 98.19 342.40 110.21 336.20 C 126.36 327.05 142.52 317.91 158.65 308.73 C 161.81 307.07 163.36 303.15 162.27 299.76 C 142.68 223.18 123.10 146.59 103.50 70.01 C 101.78 63.19 98.72 56.75 94.58 51.07 Z" />
</g>
<g id="#a0b4deff">
<path fill="#a0b4de" opacity="1.00" d=" M 300.27 302.01 C 307.59 301.99 314.92 301.98 322.24 302.02 C 320.02 307.73 315.67 312.67 309.97 315.07 C 304.03 317.81 297.34 316.81 291.01 317.01 C 295.32 312.86 298.33 307.63 300.27 302.01 Z" />
<path fill="#a0b4de" opacity="1.00" d=" M 443.06 392.02 C 448.76 392.05 454.48 391.87 460.18 392.08 C 464.54 392.27 467.92 396.97 466.78 401.18 C 466.12 404.26 463.29 406.77 460.12 406.92 C 454.43 407.12 448.74 406.95 443.06 406.98 C 444.77 402.09 444.77 396.91 443.06 392.02 Z" />
</g>
<g id="#375798ff">
<path fill="#375798" opacity="1.00" d=" M 154.31 461.29 C 158.48 455.41 165.56 452.00 172.71 451.93 C 172.48 456.86 172.43 461.80 172.77 466.73 C 168.57 467.09 164.54 470.55 165.03 475.04 C 165.18 479.13 168.97 481.85 172.77 482.26 C 172.43 487.19 172.47 492.14 172.70 497.07 C 165.10 496.99 157.61 493.10 153.55 486.60 C 148.58 479.06 148.89 468.52 154.31 461.29 Z" />
<path fill="#375798" opacity="1.00" d=" M 411.25 461.37 C 415.41 455.45 422.52 452.01 429.71 451.92 C 429.47 456.85 429.43 461.80 429.80 466.73 C 425.59 467.08 421.53 470.54 422.03 475.05 C 422.18 479.15 425.99 481.85 429.79 482.27 C 429.43 487.19 429.46 492.14 429.71 497.07 C 422.54 496.97 415.44 493.56 411.28 487.66 C 405.62 480.10 405.61 468.95 411.25 461.37 Z" />
</g>
<g id="#234b72ff">
<path fill="#234b72" opacity="1.00" d=" M 172.71 451.93 C 180.43 452.13 187.95 456.31 191.83 463.03 C 196.53 470.71 195.88 481.20 190.28 488.24 C 186.16 493.70 179.48 496.83 172.70 497.07 C 172.47 492.14 172.43 487.19 172.77 482.26 C 176.32 481.55 179.82 478.96 179.96 475.06 C 180.45 470.75 176.74 467.43 172.77 466.73 C 172.43 461.80 172.48 456.86 172.71 451.93 Z" />
<path fill="#234b72" opacity="1.00" d=" M 429.71 451.92 C 437.18 452.13 444.49 456.04 448.46 462.43 C 453.39 469.95 453.09 480.43 447.72 487.65 C 443.65 493.44 436.73 496.84 429.71 497.07 C 429.46 492.14 429.43 487.19 429.79 482.27 C 433.32 481.54 436.81 478.97 436.96 475.08 C 437.46 470.77 433.75 467.45 429.80 466.73 C 429.43 461.80 429.47 456.85 429.71 451.92 Z" />
</g>
</svg>
